<svg xmlns="http://www.w3.org/2000/svg" width="150" height="54" viewBox="0 0 150 54">
  <g id="logo" transform="translate(-98.417 -131.514)">
    <g id="Group_17" data-name="Group 17">
      <path id="Path_51" data-name="Path 51" d="M125.126,131.514a27,27,0,1,0,26.709,27A26.886,26.886,0,0,0,125.126,131.514Zm0,51.589a24.59,24.59,0,1,1,24.324-24.589A24.485,24.485,0,0,1,125.126,183.1Z"/>
      <path id="Path_52" data-name="Path 52" d="M125.126,136.378a22.137,22.137,0,1,0,21.9,22.135A22.042,22.042,0,0,0,125.126,136.378Zm19.43,20.383-9.889,5.148.995-19.984A19.768,19.768,0,0,1,144.556,156.761Zm-26.98,5.554.4-8.394,7.563-3.91,7.1,4.662-.424,8.512-7.429,3.867Zm15.762-21.687-.561,11.261L116.176,141a19.256,19.256,0,0,1,17.162-.368Zm-19.424,1.759,9.311,6.11-17.587,9.092A19.77,19.77,0,0,1,113.914,142.387Zm-8.218,17.88,9.827-5.08-.939,19.911A19.767,19.767,0,0,1,105.7,160.267ZM116.911,176.4l.533-11.293,16.632,10.927a19.258,19.258,0,0,1-17.165.367Zm19.426-1.756-9.248-6.075,17.524-9.122A19.769,19.769,0,0,1,136.337,174.641Z"/>
    </g>
    <g id="Group_18" data-name="Group 18">
      <path id="Path_53" data-name="Path 53" d="M165.132,161.832a7.583,7.583,0,0,1-2.624-1.376l.95-2.053a8.065,8.065,0,0,0,2.344,1.255,8.43,8.43,0,0,0,2.668.4,4.533,4.533,0,0,0,2.473-.568,1.8,1.8,0,0,0,.875-1.594,1.475,1.475,0,0,0-.81-1.342,10.089,10.089,0,0,0-2.668-.885,11,11,0,0,1-4.212-1.638,3.452,3.452,0,0,1-1.318-2.926,4.217,4.217,0,0,1,.734-2.446,4.911,4.911,0,0,1,2.084-1.681,7.5,7.5,0,0,1,3.121-.611,9.585,9.585,0,0,1,3.078.491,6.422,6.422,0,0,1,2.387,1.365l-.929,2.052a7.048,7.048,0,0,0-4.536-1.659,3.956,3.956,0,0,0-2.354.622,1.977,1.977,0,0,0-.864,1.692,1.55,1.55,0,0,0,.767,1.4,9.03,9.03,0,0,0,2.624.9,18.568,18.568,0,0,1,3.132.993,4.669,4.669,0,0,1,1.857,1.375,3.352,3.352,0,0,1,.648,2.107,4.105,4.105,0,0,1-.734,2.435,4.7,4.7,0,0,1-2.117,1.6,8.551,8.551,0,0,1-3.261.568A11.12,11.12,0,0,1,165.132,161.832Z"/>
      <path id="Path_54" data-name="Path 54" d="M187.39,151.089v11.027h-2.657v-1.769a3.527,3.527,0,0,1-1.425,1.43,4.31,4.31,0,0,1-2.117.513,4.5,4.5,0,0,1-4.233-2.686,6.962,6.962,0,0,1-.6-2.991,7.085,7.085,0,0,1,.615-3.024,4.863,4.863,0,0,1,1.717-2.053,4.428,4.428,0,0,1,2.506-.731,4.31,4.31,0,0,1,2.117.513,3.529,3.529,0,0,1,1.425,1.43v-1.66ZM184,159.212a4.2,4.2,0,0,0,.734-2.642,4.281,4.281,0,0,0-.734-2.686,2.505,2.505,0,0,0-2.1-.939,2.477,2.477,0,0,0-2.084.972,4.339,4.339,0,0,0-.745,2.7,4.059,4.059,0,0,0,.745,2.62,2.56,2.56,0,0,0,2.106.917A2.481,2.481,0,0,0,184,159.212Z"/>
      <path id="Path_55" data-name="Path 55" d="M200.479,155.347v6.769h-2.7v-6.638a2.981,2.981,0,0,0-.5-1.91,1.876,1.876,0,0,0-1.534-.6,2.611,2.611,0,0,0-1.987.8,2.934,2.934,0,0,0-.756,2.107v6.244h-2.678v-7.9a25.278,25.278,0,0,0-.173-3.123h2.528l.194,1.813a3.967,3.967,0,0,1,1.523-1.55,4.317,4.317,0,0,1,2.171-.546Q200.479,150.805,200.479,155.347Z"/>
      <path id="Path_56" data-name="Path 56" d="M206.786,153.142v4.935q0,1.944,1.793,1.943a3.773,3.773,0,0,0,1.08-.175v2.162a5.034,5.034,0,0,1-1.728.262,3.74,3.74,0,0,1-2.851-1.049,4.212,4.212,0,0,1-.993-3.013v-5.066h-2.1v-2.053h2.1V148.4l2.7-.917v3.6h2.894v2.053Z"/>
      <path id="Path_57" data-name="Path 57" d="M221.971,151.089v11.027h-2.657v-1.769a3.523,3.523,0,0,1-1.425,1.43,4.31,4.31,0,0,1-2.117.513,4.5,4.5,0,0,1-4.234-2.686,6.966,6.966,0,0,1-.6-2.991,7.085,7.085,0,0,1,.615-3.024,4.865,4.865,0,0,1,1.717-2.053,4.429,4.429,0,0,1,2.506-.731,4.31,4.31,0,0,1,2.117.513,3.525,3.525,0,0,1,1.425,1.43v-1.66Zm-3.391,8.123a4.2,4.2,0,0,0,.734-2.642,4.279,4.279,0,0,0-.734-2.686,2.5,2.5,0,0,0-2.095-.939,2.477,2.477,0,0,0-2.085.972,4.339,4.339,0,0,0-.745,2.7,4.059,4.059,0,0,0,.745,2.62,2.56,2.56,0,0,0,2.106.917A2.48,2.48,0,0,0,218.579,159.212Z"/>
      <path id="Path_58" data-name="Path 58" d="M235.06,155.347v6.769h-2.7v-6.638a2.979,2.979,0,0,0-.5-1.91,1.876,1.876,0,0,0-1.534-.6,2.612,2.612,0,0,0-1.987.8,2.936,2.936,0,0,0-.756,2.107v6.244h-2.678v-7.9a25.278,25.278,0,0,0-.173-3.123h2.527l.194,1.813a3.97,3.97,0,0,1,1.523-1.55,4.315,4.315,0,0,1,2.171-.546Q235.06,150.805,235.06,155.347Z"/>
      <path id="Path_59" data-name="Path 59" d="M248.365,151.089v11.027h-2.657v-1.769a3.522,3.522,0,0,1-1.426,1.43,4.307,4.307,0,0,1-2.117.513,4.5,4.5,0,0,1-4.233-2.686,6.967,6.967,0,0,1-.6-2.991,7.085,7.085,0,0,1,.615-3.024,4.866,4.866,0,0,1,1.717-2.053,4.428,4.428,0,0,1,2.505-.731,4.307,4.307,0,0,1,2.117.513,3.524,3.524,0,0,1,1.426,1.43v-1.66Zm-3.391,8.123a4.2,4.2,0,0,0,.734-2.642,4.281,4.281,0,0,0-.734-2.686,2.5,2.5,0,0,0-2.1-.939,2.477,2.477,0,0,0-2.085.972,4.339,4.339,0,0,0-.745,2.7,4.059,4.059,0,0,0,.745,2.62,2.56,2.56,0,0,0,2.106.917A2.48,2.48,0,0,0,244.974,159.212Z"/>
    </g>
    <g id="Group_19" data-name="Group 19">
      <path id="Path_60" data-name="Path 60" d="M164.111,165.658h1.9a1.691,1.691,0,0,1,1.148.359,1.391,1.391,0,0,1,0,1.98,1.683,1.683,0,0,1-1.145.362H164.66v2.119h-.549Zm1.855,2.24a1.194,1.194,0,0,0,.8-.23.827.827,0,0,0,.268-.663.817.817,0,0,0-.268-.66,1.208,1.208,0,0,0-.8-.227H164.66v1.78Z" fill="#6764cb"/>
      <path id="Path_61" data-name="Path 61" d="M174.549,165.658h.549v4.819h-.549v-2.213H171.69v2.213h-.542v-4.819h.542V167.8h2.859Z" fill="#6764cb"/>
      <path id="Path_62" data-name="Path 62" d="M179.8,170.233a1.95,1.95,0,0,1-.753-.856,3.407,3.407,0,0,1,0-2.623,1.937,1.937,0,0,1,.75-.853,2.4,2.4,0,0,1,2.317,0,1.935,1.935,0,0,1,.75.853,3.4,3.4,0,0,1,0,2.619,1.979,1.979,0,0,1-.753.857,2.362,2.362,0,0,1-2.3,0Zm2.33-.7a2.787,2.787,0,0,0,0-2.944,1.615,1.615,0,0,0-2.367,0,2.263,2.263,0,0,0-.422,1.466,2.288,2.288,0,0,0,.422,1.475,1.6,1.6,0,0,0,2.363,0Z" fill="#6764cb"/>
      <path id="Path_63" data-name="Path 63" d="M187.658,170.477v-4.345H186v-.474h3.877v.474h-1.66v4.345Z" fill="#6764cb"/>
      <path id="Path_64" data-name="Path 64" d="M193.771,170.233a1.95,1.95,0,0,1-.753-.856,3.407,3.407,0,0,1,0-2.623,1.938,1.938,0,0,1,.75-.853,2.4,2.4,0,0,1,2.317,0,1.936,1.936,0,0,1,.75.853,3.392,3.392,0,0,1,0,2.619,1.979,1.979,0,0,1-.753.857,2.362,2.362,0,0,1-2.3,0Zm2.33-.7a2.787,2.787,0,0,0,0-2.944,1.615,1.615,0,0,0-2.367,0,2.263,2.263,0,0,0-.422,1.466,2.288,2.288,0,0,0,.422,1.475,1.6,1.6,0,0,0,2.363,0Z" fill="#6764cb"/>
      <path id="Path_65" data-name="Path 65" d="M204.544,167.966V170.2a2.776,2.776,0,0,1-.737.24,4.687,4.687,0,0,1-.924.091,2.434,2.434,0,0,1-1.225-.294,1.926,1.926,0,0,1-.787-.85,2.993,2.993,0,0,1-.271-1.326,2.957,2.957,0,0,1,.271-1.317,1.944,1.944,0,0,1,.777-.846,2.33,2.33,0,0,1,1.195-.294,2.681,2.681,0,0,1,.921.152,1.915,1.915,0,0,1,.72.457l-.214.426a2.469,2.469,0,0,0-.68-.43,2,2,0,0,0-.747-.132,1.536,1.536,0,0,0-1.242.511,2.733,2.733,0,0,0,.01,2.965,1.608,1.608,0,0,0,1.286.51,3.479,3.479,0,0,0,1.145-.189v-1.468h-1.185v-.44Z" fill="#6764cb"/>
      <path id="Path_66" data-name="Path 66" d="M212.089,170.477h-.583l-.589-1.6a.691.691,0,0,0-.3-.4,1.172,1.172,0,0,0-.539-.1h-1.192v2.1h-.542v-4.819h1.895a1.8,1.8,0,0,1,1.182.345,1.227,1.227,0,0,1,.412,1,1.276,1.276,0,0,1-.244.8,1.318,1.318,0,0,1-.706.457.643.643,0,0,1,.355.18,1.127,1.127,0,0,1,.248.416Zm-1.895-2.565q1.1,0,1.1-.907a.813.813,0,0,0-.268-.666,1.3,1.3,0,0,0-.83-.22h-1.306v1.793Z" fill="#6764cb"/>
      <path id="Path_67" data-name="Path 67" d="M219.266,170.477l-.522-1.238h-2.49l-.529,1.238h-.569l2.1-4.819h.482l2.1,4.819Zm-2.818-1.7h2.1L217.5,166.3Z" fill="#6764cb"/>
      <path id="Path_68" data-name="Path 68" d="M223.216,165.658h1.9a1.69,1.69,0,0,1,1.148.359,1.391,1.391,0,0,1,0,1.98,1.682,1.682,0,0,1-1.145.362h-1.353v2.119h-.549Zm1.855,2.24a1.193,1.193,0,0,0,.8-.23.826.826,0,0,0,.268-.663.816.816,0,0,0-.268-.66,1.207,1.207,0,0,0-.8-.227h-1.306v1.78Z" fill="#6764cb"/>
      <path id="Path_69" data-name="Path 69" d="M233.654,165.658h.549v4.819h-.549v-2.213H230.8v2.213h-.543v-4.819h.543V167.8h2.859Z" fill="#6764cb"/>
      <path id="Path_70" data-name="Path 70" d="M238.059,170.477v-4.819h3.013v.461H238.6V167.8h2.336v.467H238.6v1.753h2.47v.46Z" fill="#6764cb"/>
      <path id="Path_71" data-name="Path 71" d="M248.417,170.477h-.582l-.589-1.6a.691.691,0,0,0-.3-.4,1.172,1.172,0,0,0-.539-.1h-1.192v2.1h-.542v-4.819h1.895a1.794,1.794,0,0,1,1.181.345,1.226,1.226,0,0,1,.412,1,1.276,1.276,0,0,1-.245.8,1.318,1.318,0,0,1-.706.457.643.643,0,0,1,.355.18,1.122,1.122,0,0,1,.248.416Zm-1.895-2.565q1.1,0,1.1-.907a.813.813,0,0,0-.268-.666,1.3,1.3,0,0,0-.83-.22h-1.305v1.793Z" fill="#6764cb"/>
    </g>
  </g>
</svg>
